<?xml version="1.0" standalone="no"?>
<!DOCTYPE svg PUBLIC "-//W3C//DTD SVG 20010904//EN"
 "http://www.w3.org/TR/2001/REC-SVG-20010904/DTD/svg10.dtd">
<svg version="1.0" xmlns="http://www.w3.org/2000/svg"
 width="500.000000pt" height="500.000000pt" viewBox="0 0 500.000000 500.000000"
 preserveAspectRatio="xMidYMid meet">
<metadata>
Created by potrace 1.14, written by Peter Selinger 2001-2017
</metadata>
<g transform="translate(0.000000,500.000000) scale(0.100000,-0.100000)"
fill="#000000" stroke="none">
<path d="M2490 4570 c0 -5 5 -10 11 -10 5 0 7 5 4 10 -3 6 -8 10 -11 10 -2 0
-4 -4 -4 -10z"/>
<path d="M2489 4483 c-2 -78 -4 -122 -14 -283 -4 -63 -8 -140 -10 -170 -4 -69
-16 -290 -20 -350 -1 -25 -3 -67 -4 -95 -1 -38 -4 -46 -13 -37 -22 22 -29 12
-12 -20 13 -24 15 -46 10 -95 -7 -72 -17 -100 -53 -162 l-26 -44 -51 129 -51
129 37 40 c20 22 34 42 32 45 -3 3 -19 -10 -35 -28 -16 -17 -32 -32 -36 -32
-5 0 -37 76 -71 168 -35 92 -70 181 -77 197 -7 17 -34 86 -60 155 -26 69 -53
139 -60 155 -7 17 -36 92 -66 167 -29 76 -54 137 -55 135 -3 -3 128 -504 239
-914 31 -116 40 -159 29 -150 -26 21 -223 223 -232 238 -5 7 -12 10 -16 6 -4
-3 53 -68 127 -142 74 -75 136 -138 138 -140 1 -2 13 -40 26 -83 23 -82 20
-89 -20 -62 -5 3 -40 19 -77 34 -57 24 -75 38 -125 99 -33 40 -139 171 -238
292 -98 121 -181 222 -184 225 -4 3 -60 72 -125 153 -66 81 -123 150 -127 153
-5 3 13 -28 39 -68 27 -40 100 -153 163 -251 62 -98 142 -221 177 -275 120
-185 140 -227 104 -220 -9 3 -16 9 -15 16 2 6 -24 39 -57 72 -33 33 -60 56
-60 50 0 -6 25 -35 55 -65 31 -29 51 -56 46 -59 -5 -3 -29 -2 -55 3 -25 4 -48
6 -51 3 -3 -3 -5 0 -5 7 0 9 -10 11 -32 7 -18 -3 -51 -8 -73 -11 -22 -3 -60
-13 -85 -22 l-45 -15 -260 167 c-143 91 -273 175 -290 186 -47 31 24 -30 280
-239 198 -161 230 -191 227 -212 -4 -44 23 -143 53 -194 17 -27 51 -77 76
-111 65 -88 64 -85 27 -74 -18 5 -143 39 -278 74 -135 36 -346 91 -470 124
-124 33 -226 58 -227 57 -3 -2 808 -319 935 -365 23 -9 42 -18 42 -21 0 -10
-46 -57 -65 -67 -11 -5 -38 -8 -61 -7 -34 1 -48 9 -87 50 -26 27 -45 54 -43
60 3 7 -2 18 -10 25 -12 10 -18 9 -31 -4 -19 -19 -11 -47 15 -47 10 0 40 -22
67 -50 47 -48 51 -50 102 -49 48 2 57 6 90 40 21 22 42 39 48 39 5 0 53 -17
107 -37 70 -27 112 -50 149 -83 l51 -45 -52 -1 c-36 -1 -48 2 -38 8 9 7 5 8
-12 4 -74 -18 -191 -30 -385 -40 -60 -3 -139 -8 -175 -11 -36 -2 -123 -7 -195
-11 -71 -3 -150 -8 -175 -9 -116 -8 -318 -18 -348 -18 -46 0 -29 -11 21 -13
41 -2 200 -11 322 -19 33 -2 121 -7 195 -10 74 -4 151 -8 170 -10 19 -2 98 -6
175 -10 77 -4 158 -8 180 -10 22 -1 103 -6 180 -10 267 -15 258 -14 222 -25
-16 -5 -44 -7 -63 -5 -19 1 -32 -1 -29 -5 3 -5 15 -7 27 -5 32 6 10 -9 -40
-29 -24 -9 -48 -14 -53 -11 -5 4 -9 2 -9 -3 0 -6 -12 -14 -27 -18 -35 -11
-213 -12 -213 -1 0 4 9 7 20 7 11 0 19 5 18 11 -4 14 60 49 89 49 13 0 23 5
23 10 0 24 -103 -19 -153 -63 -23 -21 -36 -24 -72 -21 -35 3 -49 0 -65 -16
-11 -11 -20 -18 -20 -16 0 2 -18 -14 -39 -35 -27 -28 -44 -37 -57 -33 -18 5
-18 5 -1 -9 18 -15 23 -37 7 -37 -5 0 -14 8 -20 17 -10 16 -10 16 -8 -2 2 -12
12 -21 26 -23 20 -3 27 6 23 30 -1 7 30 40 82 87 38 34 124 39 96 5 -18 -21
-4 -28 22 -11 19 14 23 14 37 1 8 -8 17 -12 20 -9 4 3 0 10 -8 15 -13 8 -12
10 0 14 20 7 58 10 95 7 26 -2 20 -6 -40 -30 -91 -36 -812 -317 -890 -346
-125 -48 -175 -68 -172 -71 1 -1 185 46 407 105 237 63 408 103 411 98 9 -12
62 1 54 13 -3 5 14 14 37 20 24 7 74 20 113 31 l69 19 -124 -125 c-69 -68
-127 -130 -129 -137 -2 -7 60 51 137 128 146 147 146 146 252 169 3 1 23 7 45
13 55 16 66 14 30 -5 -31 -17 -62 -52 -57 -66 1 -5 -2 -6 -7 -2 -10 5 -37 -33
-29 -41 2 -2 20 7 39 20 28 20 105 48 89 33 -8 -8 -143 -119 -190 -157 -52
-42 -227 -185 -255 -208 -11 -9 -67 -55 -125 -102 -379 -309 -480 -392 -480
-395 0 -3 19 8 42 24 24 16 178 115 343 221 165 106 323 208 351 226 38 26 62
34 95 34 33 0 50 6 66 24 12 13 20 26 16 29 -3 3 -13 -3 -22 -15 -16 -19 -71
-35 -71 -20 0 4 33 27 73 51 53 32 66 37 50 19 -24 -25 -31 -44 -13 -33 13 8
13 -8 1 -21 -6 -5 -6 -24 -2 -44 7 -30 9 -32 16 -15 17 43 58 86 103 109 26
13 52 21 59 19 6 -2 14 1 18 6 3 6 13 11 21 11 13 0 12 -4 -1 -30 -17 -32 -39
-42 -28 -12 4 10 2 14 -3 9 -5 -5 -9 -21 -10 -36 -2 -33 -109 -201 -129 -201
-10 0 -34 -32 -34 -45 -1 -5 9 1 20 15 l20 25 -15 -30 c-9 -16 -47 -77 -85
-135 -37 -58 -117 -181 -177 -275 -153 -238 -138 -221 -191 -224 -7 -1 -28
-15 -47 -31 -87 -77 -59 -244 46 -277 137 -42 249 76 202 213 -14 42 -67 94
-96 94 -10 0 -18 2 -18 5 0 9 440 548 492 602 42 45 55 53 87 53 32 0 45 9
116 80 43 44 81 78 83 76 2 -2 -4 -32 -14 -66 -15 -55 -26 -71 -92 -137 -41
-40 -73 -76 -70 -78 6 -7 68 52 68 65 0 6 5 10 10 10 6 0 22 12 36 27 14 16
24 21 21 12 -3 -8 -15 -55 -27 -105 -13 -49 -31 -99 -42 -110 -13 -15 -17 -29
-13 -47 4 -16 -11 -91 -41 -206 l-48 -181 -38 0 c-33 0 -38 -3 -38 -22 -1 -65
-37 -181 -88 -280 -2 -5 15 -8 37 -8 47 0 46 3 26 -70 -20 -76 -12 -73 16 5
12 36 28 65 35 65 7 0 10 8 7 18 -2 10 5 39 16 65 19 45 21 46 46 35 33 -15
42 -51 21 -83 -9 -13 -16 -27 -16 -30 0 -3 27 -5 60 -5 55 0 75 10 51 24 -11
7 -57 128 -65 171 -19 101 -29 67 177 593 l20 54 19 -24 18 -23 -5 38 c-5 42
-2 44 23 19 12 -11 18 -32 17 -64 0 -42 -5 -52 -48 -98 -26 -28 -58 -53 -69
-55 -30 -6 -40 -27 -22 -45 11 -11 18 -12 32 -3 9 6 16 17 14 23 -1 7 22 38
52 70 54 56 54 57 52 114 -2 45 -7 60 -24 72 -42 29 -20 93 64 181 30 31 52
58 50 61 -3 2 -30 -22 -62 -55 -32 -32 -53 -51 -47 -43 5 8 15 31 22 50 18 55
35 90 43 90 4 0 5 7 2 15 -4 9 1 18 11 21 9 4 12 10 7 13 -6 4 -2 24 10 51 10
25 17 35 14 23 -2 -13 -1 -23 3 -23 4 0 8 -33 8 -72 1 -40 3 -95 6 -123 3 -27
9 -111 12 -185 4 -74 8 -157 10 -183 2 -27 7 -113 10 -190 4 -78 9 -150 11
-160 2 -10 -3 -20 -11 -23 -13 -5 -13 -10 0 -33 8 -16 16 -66 20 -112 4 -72 2
-90 -15 -124 -11 -21 -20 -40 -20 -41 0 -2 10 -4 22 -6 21 -3 23 -9 26 -83 3
-76 7 -94 16 -84 3 2 6 41 8 87 3 77 4 82 26 82 l22 0 -20 37 c-17 33 -19 50
-14 127 3 50 12 103 20 118 13 24 13 28 0 28 -10 0 -13 9 -11 33 2 17 6 86 10
152 7 162 15 288 21 360 3 33 7 116 10 185 3 87 9 137 21 163 l17 39 48 -134
c27 -73 58 -152 68 -175 27 -58 26 -63 -18 -106 -34 -33 -39 -44 -41 -90 -2
-50 0 -54 49 -101 27 -27 50 -57 50 -67 0 -10 5 -21 12 -25 7 -5 9 -2 5 9 -3
8 1 21 10 29 14 11 16 10 11 -14 -5 -28 6 -39 15 -15 7 19 -11 46 -28 43 -9
-1 -37 18 -62 43 -43 42 -47 50 -47 96 -1 45 2 53 37 84 21 18 39 32 41 30 4
-6 232 -597 271 -704 42 -115 108 -276 111 -272 2 1 -5 33 -15 70 -19 67 -19
68 2 61 46 -15 99 -11 139 10 52 26 69 67 42 97 -23 26 -38 24 -52 -5 -13 -29
-62 -42 -119 -33 -46 8 -49 12 -65 70 -11 44 -11 49 9 69 45 44 183 31 183
-17 0 -23 28 -18 45 9 31 48 -13 101 -93 110 -60 6 -106 -9 -139 -47 l-29 -33
-23 85 c-12 47 -24 93 -26 101 -15 57 -72 274 -105 397 -22 80 -38 149 -35
151 2 3 64 -55 136 -127 72 -73 133 -131 135 -128 3 3 -60 70 -139 149 -130
129 -147 149 -161 198 -9 29 -16 61 -16 69 0 8 39 -24 87 -72 76 -77 90 -87
121 -87 44 0 40 4 316 -334 116 -142 221 -271 233 -285 30 -35 29 -41 -7 -41
-36 0 -36 0 -10 -47 36 -68 32 -73 -69 -73 -101 0 -102 1 -63 82 l19 38 -47 0
-48 0 13 -36 c15 -45 12 -222 -4 -252 -11 -21 -10 -22 38 -22 l51 0 -20 39
c-42 79 -41 81 61 81 101 0 105 -4 69 -75 -11 -22 -20 -41 -20 -42 0 -2 20 -3
45 -3 25 0 45 2 45 4 0 3 -5 17 -11 33 -12 32 -13 200 -1 232 8 22 9 22 36
-13 15 -20 32 -33 38 -30 7 4 8 2 4 -5 -4 -6 -2 -19 5 -27 17 -20 5 -107 -21
-151 -11 -19 -20 -36 -20 -39 0 -2 27 -4 60 -4 l60 0 -21 40 c-33 63 -35 150
-5 216 l25 54 -60 0 c-63 0 -67 -4 -44 -34 8 -11 15 -25 15 -30 0 -6 -22 23
-49 64 -26 41 -115 179 -196 305 -82 127 -168 260 -192 296 -49 75 -56 96 -17
49 15 -17 29 -28 32 -26 3 3 -21 32 -53 65 -70 72 -108 134 -110 179 -2 33 -1
34 29 28 104 -19 107 -20 161 -75 32 -32 47 -41 75 -41 29 0 44 -9 89 -56 29
-30 56 -53 59 -50 3 3 -20 30 -51 61 -47 47 -61 55 -94 56 -31 1 -44 7 -72 40
-36 43 -29 55 9 14 17 -18 34 -25 63 -25 34 0 76 -23 306 -172 146 -94 311
-201 366 -236 55 -35 114 -73 130 -84 l30 -20 -31 29 c-17 15 -122 102 -233
193 -112 91 -247 200 -300 244 -53 43 -106 86 -119 96 l-22 18 30 32 c16 18
30 40 30 50 0 33 16 30 58 -12 23 -23 42 -37 42 -32 0 4 -19 28 -42 51 -32 33
-47 59 -59 106 -10 34 -17 63 -15 64 1 1 26 -4 56 -13 30 -8 132 -34 225 -59
94 -24 280 -73 415 -109 134 -36 246 -63 248 -62 1 2 -30 16 -70 31 -112 42
-138 52 -513 198 -192 74 -363 140 -378 146 l-28 11 45 39 c39 34 51 39 86 36
34 -2 50 -11 86 -46 24 -24 44 -51 44 -60 0 -23 24 -41 44 -33 25 10 16 48
-12 52 -12 2 -43 24 -68 49 -39 41 -51 47 -95 50 -46 3 -52 0 -94 -38 -53 -49
-78 -48 -119 6 -15 19 -26 35 -24 36 2 0 10 2 19 4 29 5 93 38 124 63 l30 25
-45 -8 c-52 -10 -101 -8 -113 4 -4 4 -2 8 5 9 105 8 162 12 263 17 66 3 143 8
170 10 28 2 106 7 175 10 69 3 152 8 185 10 207 13 314 19 343 17 17 0 32 2
32 6 0 4 -8 8 -17 8 -29 1 -304 15 -358 19 -27 2 -104 6 -170 10 -66 3 -149 8
-185 10 -36 2 -114 6 -175 10 -234 13 -270 16 -277 28 -6 9 -10 9 -16 -1 -6
-8 -24 -11 -53 -8 -24 2 -74 5 -111 5 -38 1 -68 5 -68 9 0 5 14 7 30 4 17 -2
30 0 30 4 0 10 -51 11 -68 0 -6 -3 -14 -2 -17 4 -6 10 46 37 82 43 10 1 25 7
33 12 33 22 205 83 208 74 2 -5 17 2 34 16 16 14 34 25 40 25 5 0 24 6 41 14
28 12 361 141 667 258 58 22 119 46 135 53 17 6 46 18 65 25 19 7 39 16 43 20
8 7 -68 -12 -283 -69 -136 -37 -503 -132 -510 -133 -3 -1 -13 2 -23 7 -12 5
-25 1 -40 -13 -14 -13 -58 -30 -110 -42 -48 -12 -95 -24 -104 -27 -11 -4 -14
-3 -9 5 10 17 -3 15 -21 -3 -8 -9 -18 -14 -20 -11 -3 3 3 13 12 23 26 26 73
133 59 133 -3 0 -15 -10 -27 -23 -12 -13 -16 -16 -9 -6 7 9 13 32 14 52 1 43
37 80 208 217 58 47 107 87 110 91 3 3 39 32 80 64 41 33 77 62 80 65 3 3 66
55 140 115 74 60 144 118 154 127 11 10 24 18 30 18 5 0 7 2 4 5 -4 4 -606
-377 -759 -481 -19 -13 -39 -24 -44 -24 -5 0 1 7 13 16 12 8 20 20 16 25 -3 5
-19 -7 -35 -27 -16 -20 -29 -33 -29 -29 0 4 -8 -2 -17 -13 -10 -12 -43 -37
-73 -56 -48 -32 -62 -36 -119 -36 -62 0 -65 -1 -112 -45 -26 -25 -53 -45 -59
-45 -6 0 -9 -4 -6 -9 3 -4 -3 -16 -14 -26 -11 -10 -17 -22 -14 -27 3 -5 12 -1
20 10 7 11 36 38 63 61 l49 42 -11 -32 c-11 -29 -76 -84 -108 -91 -8 -2 -20
-11 -27 -20 -7 -10 -18 -18 -23 -18 -12 0 26 69 47 86 8 6 11 13 9 16 -3 3 15
28 40 56 26 29 44 56 40 61 -3 6 10 28 29 49 20 22 33 42 29 46 -3 3 0 6 8 6
8 0 38 24 67 54 48 47 53 57 54 97 0 46 5 57 93 194 182 283 352 546 376 583
16 23 26 42 24 42 -2 0 -74 -87 -160 -192 -86 -106 -172 -211 -190 -233 -19
-22 -96 -116 -171 -210 -76 -93 -140 -172 -144 -175 -3 -3 -15 -17 -27 -32
l-21 -28 -6 43 c-9 55 -26 84 -26 43 0 -68 -61 -145 -146 -189 l-32 -16 20 77
c11 42 24 82 29 88 5 7 8 18 7 25 -2 7 4 13 13 14 17 0 262 239 254 247 -3 3
-54 -44 -113 -104 -101 -103 -138 -135 -148 -126 -9 10 46 181 63 193 14 11
16 18 7 32 -8 14 -7 34 7 83 43 153 198 745 195 747 -2 2 -15 -27 -29 -64 -14
-38 -103 -266 -197 -508 -94 -242 -183 -471 -197 -510 -30 -82 -31 -84 -43
-65 -7 11 -10 7 -10 -15 0 -16 -9 -50 -20 -74 -22 -48 -24 -55 -11 -47 4 3 -3
-25 -18 -63 -14 -38 -27 -68 -29 -66 -2 1 -5 31 -7 66 -2 35 -6 105 -9 154 -4
50 -8 140 -11 200 -3 61 -8 137 -10 170 -2 33 -7 121 -10 195 -4 74 -8 152
-10 172 -2 20 -7 97 -11 170 -3 73 -8 156 -9 183 -2 28 -4 76 -4 108 -1 80
-21 72 -22 -10z m-916 -1102 c7 -7 17 -6 29 0 23 12 118 2 118 -13 0 -5 9 -6
20 -3 16 5 20 2 20 -16 0 -18 -2 -19 -15 -9 -9 7 -17 11 -20 8 -2 -2 43 -51
101 -109 59 -57 101 -94 95 -83 -5 12 -25 35 -43 51 -18 16 -42 40 -53 53
l-20 24 29 -18 c46 -29 110 -111 100 -127 -2 -3 5 -14 16 -24 11 -10 20 -29
20 -42 0 -24 0 -24 -26 6 -24 29 -30 31 -97 31 -55 0 -79 5 -102 20 -16 11
-25 20 -20 20 6 1 -5 7 -22 15 -18 8 -33 19 -33 25 0 6 -4 8 -10 5 -5 -3 -10
0 -10 7 0 7 -14 22 -30 33 -16 11 -30 27 -30 35 0 11 -3 11 -12 2 -13 -13 -11
-16 32 -42 8 -4 13 -11 10 -13 -3 -3 -54 27 -113 65 -71 46 -105 74 -98 81 13
13 111 35 135 31 11 -2 24 -8 29 -13z m1602 -90 c-62 -61 -62 -60 5 44 43 66
45 68 48 41 3 -24 -6 -39 -53 -85z m-170 69 c3 -5 1 -10 -4 -10 -6 0 -11 5
-11 10 0 6 2 10 4 10 3 0 8 -4 11 -10z m-3 -42 c-2 -10 -8 -15 -13 -12 -5 3
-6 -2 -3 -10 4 -11 0 -16 -11 -16 -9 0 -13 -5 -10 -10 3 -6 -1 -13 -9 -16 -9
-3 -16 -10 -16 -15 0 -5 -9 -19 -19 -31 -11 -13 -28 -33 -38 -44 -10 -12 -36
-27 -56 -32 l-38 -11 7 32 c9 43 6 40 60 68 48 24 124 90 124 107 0 5 6 9 14
9 8 0 11 -8 8 -19z m-584 -103 c-3 -120 -16 -134 -46 -53 l-19 51 31 53 c17
30 32 54 34 54 2 0 2 -47 0 -105z m-928 -45 c3 -3 31 -27 62 -54 32 -26 55
-53 51 -59 -4 -6 0 -8 8 -5 15 6 319 -234 347 -273 14 -20 14 -20 -14 -6 -16
8 -46 17 -67 20 -40 5 -96 46 -180 131 -35 36 -45 51 -36 57 8 4 10 12 5 16
-5 4 -11 3 -13 -4 -7 -20 -33 -2 -33 23 0 13 -4 24 -9 24 -6 0 -6 -12 0 -32 5
-18 9 -34 9 -35 0 -2 7 -3 15 -3 8 0 15 -5 15 -10 0 -6 15 -23 33 -39 l32 -29
-60 5 c-59 6 -61 6 -138 84 -43 44 -80 79 -84 79 -9 0 17 -30 84 -96 34 -34
59 -64 56 -68 -18 -17 -44 0 -84 57 -59 82 -84 121 -70 113 20 -13 11 6 -13
29 -26 24 -56 109 -56 158 l0 29 68 -53 c37 -30 69 -56 72 -59z m624 66 c61
-28 75 -39 85 -66 6 -18 11 -34 11 -36 0 -1 -14 -2 -32 -2 -18 1 -41 10 -53
22 -35 36 -98 116 -91 116 4 0 40 -15 80 -34z m86 -148 c0 -17 -1 -29 -2 -27
-2 2 -14 16 -27 32 l-24 27 26 0 c24 0 27 -4 27 -32z m630 20 c0 6 5 12 10 12
6 0 -8 -24 -32 -54 -24 -29 -45 -52 -46 -50 -9 7 21 74 30 68 7 -5 8 -2 3 6
-4 7 -2 16 6 21 8 5 17 3 21 -4 6 -9 8 -9 8 1z m-909 -25 c29 -17 48 -44 59
-85 l8 -27 -26 17 c-15 9 -29 19 -32 22 -3 4 -33 23 -67 44 -35 21 -63 39 -63
40 0 10 100 1 121 -11z m313 -48 c7 -29 7 -29 -8 -10 -8 11 -15 34 -15 50 0
25 2 27 8 10 4 -11 11 -33 15 -50z m945 45 c-12 -8 -39 -25 -60 -38 l-37 -22
11 32 c15 42 20 45 68 44 40 -1 40 -1 18 -16z m-1156 -59 c10 -17 15 -31 10
-31 -9 0 -53 62 -53 74 0 14 24 -10 43 -43z m1348 -35 c-12 -13 -18 -26 -14
-30 5 -4 4 -6 -2 -5 -5 2 -21 -4 -35 -13 -25 -16 -130 -35 -116 -20 4 4 47 39
94 78 l87 72 3 -30 c2 -20 -4 -38 -17 -52z m-1353 4 c7 -12 17 -18 21 -15 5 3
7 -4 4 -14 -6 -25 -27 -17 -42 15 -13 29 -14 34 -3 34 4 0 13 -9 20 -20z m63
-61 l22 -32 -26 18 c-15 9 -27 24 -27 31 0 21 6 17 31 -17z m1304 1 c-8 -16
-28 -43 -44 -59 -29 -30 -93 -57 -111 -46 -5 3 -20 -1 -32 -9 -13 -8 -43 -18
-68 -22 -25 -4 -49 -10 -55 -14 -5 -4 -23 -10 -40 -14 l-30 -8 30 24 c17 12
40 31 52 42 11 10 24 18 27 17 3 -1 18 12 34 28 23 25 36 30 85 34 l57 3 -32
-33 c-17 -18 -29 -35 -26 -38 3 -3 17 8 31 25 14 16 30 30 35 30 6 0 13 7 16
16 3 8 10 13 16 9 5 -3 22 5 37 19 35 33 37 33 18 -4z m260 0 c-3 -5 -12 -10
-18 -10 -7 0 -6 4 3 10 19 12 23 12 15 0z m-2030 -50 c16 26 110 -6 160 -54
18 -17 18 -18 2 -12 -11 3 -31 9 -45 12 -15 4 -32 11 -39 16 -7 5 -17 7 -22 4
-5 -4 -13 0 -18 7 -4 7 -21 13 -37 13 -18 -1 -31 5 -34 14 -4 13 -3 13 10 2
11 -9 18 -10 23 -2z m-395 -86 c0 -16 -16 -19 -25 -4 -8 13 4 32 16 25 5 -4 9
-13 9 -21z m608 -170 c5 3 31 -4 58 -15 l49 -20 -40 6 c-31 4 -36 3 -25 -5 12
-9 10 -10 -10 -5 -14 4 -38 21 -55 38 -16 17 -20 23 -8 13 12 -10 26 -15 31
-12z m1276 -33 c4 -5 -3 -7 -14 -4 -23 6 -26 13 -6 13 8 0 17 -4 20 -9z m214
-204 c17 -17 32 -34 32 -38 0 -4 -15 -3 -32 1 -54 12 -168 54 -168 62 0 4 30
7 68 6 61 0 70 -3 100 -31z m73 22 c23 -7 36 -16 32 -23 -4 -6 1 -5 10 3 9 7
17 9 17 3 0 -5 9 -8 20 -5 11 3 20 2 20 -1 0 -10 -72 -38 -98 -38 -24 -1 -54
30 -45 46 4 5 2 7 -3 4 -5 -3 -15 0 -22 8 -11 12 -9 14 9 14 12 0 39 -5 60
-11z m-186 -33 c50 -19 107 -37 127 -41 35 -7 77 -39 66 -50 -3 -3 -32 6 -64
19 -33 14 -106 43 -164 65 -59 23 -94 40 -80 40 14 1 66 -14 115 -33z m-1225
-146 c-8 -5 -24 -10 -35 -10 -12 0 -16 -3 -9 -8 7 -4 1 -15 -18 -30 -28 -23
-28 -23 -28 -3 0 12 6 21 14 21 8 0 16 6 19 14 5 13 24 20 62 24 6 1 3 -3 -5
-8z m1110 -10 c14 0 32 -39 24 -51 -4 -6 -12 -2 -21 10 -8 12 -19 19 -24 15
-5 -3 -8 0 -7 8 2 7 -3 12 -10 10 -8 -1 -11 2 -7 8 4 6 14 9 22 6 8 -3 19 -6
23 -6z m716 -17 c-2 -14 -9 -17 -28 -11 -15 5 -3 25 15 25 8 0 14 -6 13 -14z
m-1929 1 c-3 -3 -12 -4 -19 -1 -8 3 -5 6 6 6 11 1 17 -2 13 -5z m1268 -3 c-7
-12 49 -29 97 -30 87 -1 140 -27 218 -106 41 -41 77 -72 80 -69 3 3 -4 14 -15
23 -11 10 -42 40 -69 68 l-48 51 55 -15 c64 -18 76 -37 84 -127 5 -67 -8 -108
-41 -130 -22 -14 -29 -9 -152 91 -219 179 -224 184 -224 213 0 15 3 30 7 33 9
10 15 8 8 -2z m42 -7 c-3 -3 -12 -4 -19 -1 -8 3 -5 6 6 6 11 1 17 -2 13 -5z
m-1310 -26 c-3 -16 -15 -24 -53 -34 -27 -7 -51 -10 -53 -8 -11 11 69 64 96 64
8 0 11 -9 10 -22z m207 -92 c-3 -8 -15 -17 -27 -20 -26 -7 -144 -120 -152
-146 -3 -10 -19 -24 -36 -31 -17 -7 -47 -23 -66 -36 -19 -13 -31 -18 -27 -11
5 8 2 9 -10 5 -30 -12 10 44 60 82 38 29 46 32 61 20 9 -8 14 -9 10 -3 -8 14
43 63 122 113 72 46 72 46 65 27z m-714 -6 c0 -5 -8 -10 -17 -10 -15 0 -16 2
-3 10 19 12 20 12 20 0z m1580 0 c13 -8 13 -10 -2 -10 -9 0 -20 5 -23 10 -8
13 5 13 25 0z m49 -34 c6 -4 20 -21 31 -39 21 -31 21 -31 1 -8 -12 13 -21 18
-21 12 0 -6 18 -28 40 -48 24 -23 40 -47 40 -60 0 -26 -1 -27 -32 -12 -23 10
-78 86 -78 106 0 5 -9 18 -20 28 -11 10 -20 21 -20 25 0 8 44 5 59 -4z m-945
-11 c-4 -8 -10 -15 -15 -15 -5 0 -9 -5 -9 -11 0 -6 -14 -30 -30 -55 -26 -36
-36 -44 -63 -44 l-31 0 44 45 c24 24 47 42 52 39 4 -3 8 0 8 7 0 14 29 49 41
49 5 0 6 -7 3 -15z m1068 -82 c34 -32 59 -50 55 -41 -4 12 -2 15 9 11 10 -4
12 -9 4 -18 -5 -6 -6 -16 -2 -20 4 -4 -12 2 -35 15 -24 13 -43 26 -43 29 0 3
-14 21 -30 40 -17 18 -30 35 -30 37 0 11 18 -2 72 -53z m-896 -11 c-12 -35
-23 -52 -39 -56 -20 -5 -87 -61 -87 -72 0 -3 20 11 44 30 39 33 66 45 66 31 0
-3 -6 -21 -14 -40 -8 -18 -11 -37 -8 -41 4 -4 2 -5 -3 -1 -6 3 -48 -32 -93
-77 -65 -65 -89 -83 -112 -84 -17 0 -30 2 -30 6 0 4 24 37 54 74 53 67 54 68
61 40 7 -27 7 -27 21 13 17 49 17 48 2 39 -15 -10 3 16 82 113 36 44 67 79 69
77 1 -1 -4 -25 -13 -52z m366 -74 c-8 -8 -8 -2 -1 57 1 11 4 5 6 -14 3 -18 0
-38 -5 -43z m228 15 c-2 -67 2 -77 9 -19 l6 48 65 -82 c36 -44 64 -88 64 -95
-1 -8 2 -13 6 -10 5 3 16 -2 25 -11 13 -14 14 -19 3 -26 -10 -7 -9 -9 4 -4 12
3 24 -5 39 -25 l22 -31 -35 6 c-28 4 -56 26 -132 103 -99 101 -123 145 -96
178 19 23 22 19 20 -32z m309 14 c6 -8 29 -19 52 -26 58 -17 44 -22 -21 -8
-38 9 -56 18 -58 30 -4 20 11 22 27 4z m101 -12 c7 -8 8 -15 2 -15 -5 0 -15 7
-22 15 -7 8 -8 15 -2 15 5 0 15 -7 22 -15z m-150 -15 c8 -5 11 -12 7 -16 -4
-4 -15 0 -24 9 -18 18 -8 23 17 7z m271 -60 c10 0 20 -4 23 -9 3 -5 -5 -8 -18
-8 -13 0 -28 9 -36 21 -10 17 -10 19 1 9 7 -7 21 -13 30 -13z m-1278 -445 c-3
-9 -8 -14 -10 -11 -3 3 -2 9 2 15 9 16 15 13 8 -4z m125 -107 c-6 -18 -28 -21
-28 -4 0 9 7 16 16 16 9 0 14 -5 12 -12z m-722 -393 c25 -16 34 -58 20 -92
-19 -46 -128 -69 -205 -42 -67 24 -74 107 -12 143 l33 19 -12 -24 c-7 -13 -18
-31 -24 -40 -6 -8 5 1 24 22 19 20 42 39 50 41 22 7 100 -10 126 -27z m467 1
c-3 -14 -16 -35 -30 -48 l-25 -23 7 30 c6 24 37 65 50 65 1 0 0 -11 -2 -24z
m73 -41 l6 -30 -21 21 c-14 13 -19 26 -15 38 8 22 21 10 30 -29z m-111 -95
c-4 -12 -9 -19 -12 -17 -3 3 -2 15 2 27 4 12 9 19 12 17 3 -3 2 -15 -2 -27z"/>
<path d="M1835 2610 c3 -5 11 -10 16 -10 6 0 7 5 4 10 -3 6 -11 10 -16 10 -6
0 -7 -4 -4 -10z"/>
<path d="M3353 2037 c-8 -17 -7 -28 3 -42 12 -16 14 -16 14 -3 0 9 4 18 8 20
4 2 3 13 -3 25 l-12 23 -10 -23z"/>
<path d="M1818 1895 c-25 -25 -43 -47 -38 -50 4 -3 24 13 43 34 20 22 37 37
40 35 2 -3 7 2 10 11 10 25 -6 17 -55 -30z"/>
<path d="M2982 2024 c10 -10 20 -15 24 -12 3 4 -5 12 -18 18 -22 12 -22 12 -6
-6z"/>
<path d="M2177 3808 c-6 -19 12 -50 27 -45 8 3 30 -12 51 -34 20 -21 41 -39
46 -39 6 0 7 -4 4 -10 -3 -5 -2 -10 4 -10 5 0 8 -13 6 -30 -2 -16 0 -30 4 -30
5 0 8 16 6 35 -1 26 -13 46 -48 80 -25 26 -47 56 -49 68 -3 25 -43 36 -51 15z
m40 -15 c2 -6 -3 -13 -12 -16 -10 -5 -15 0 -15 14 0 21 21 22 27 2z"/>
<path d="M2791 3766 c-6 -7 -10 -19 -9 -25 2 -5 -19 -33 -47 -62 -47 -48 -50
-54 -51 -106 -1 -43 4 -61 19 -80 11 -12 25 -23 31 -23 5 0 -1 11 -13 24 -15
16 -23 38 -25 72 -3 45 0 52 43 99 25 27 47 52 48 54 1 2 13 4 25 5 18 1 23 7
23 26 0 29 -26 38 -44 16z m34 -6 c9 -15 -3 -30 -20 -24 -7 3 -11 12 -8 20 6
16 19 18 28 4z"/>
<path d="M2310 3590 c0 -5 5 -10 10 -10 6 0 10 5 10 10 0 6 -4 10 -10 10 -5 0
-10 -4 -10 -10z"/>
<path d="M3328 3471 c-47 -47 -57 -62 -56 -89 1 -18 -1 -34 -3 -37 -2 -2 -51
-51 -108 -109 -58 -59 -100 -106 -95 -106 5 0 30 20 54 45 26 26 50 43 58 40
9 -3 12 0 9 9 -3 8 16 35 47 66 46 45 52 57 49 84 -3 28 4 39 53 85 30 29 54
56 52 60 -2 4 -29 -18 -60 -48z"/>
<path d="M2640 3420 c0 -5 5 -10 10 -10 6 0 10 5 10 10 0 6 -4 10 -10 10 -5 0
-10 -4 -10 -10z"/>
<path d="M2065 3360 c3 -5 8 -10 11 -10 2 0 4 5 4 10 0 6 -5 10 -11 10 -5 0
-7 -4 -4 -10z"/>
<path d="M2602 3180 c-7 -11 -9 -20 -4 -20 4 0 13 9 20 20 7 11 9 20 4 20 -4
0 -13 -9 -20 -20z"/>
<path d="M3522 3015 c-68 -69 -119 -125 -114 -125 11 0 192 181 192 192 0 4 4
8 8 8 11 0 52 35 52 44 0 17 -25 -4 -138 -119z"/>
<path d="M3722 2812 c-13 -37 -89 -112 -116 -114 -12 -1 -31 -1 -43 -1 -13 0
-23 -4 -23 -10 0 -6 19 -7 46 -4 38 4 55 13 98 55 28 27 56 48 62 45 16 -5 37
24 30 42 -9 26 -43 18 -54 -13z m44 7 c3 -6 0 -15 -7 -20 -14 -8 -32 9 -23 23
7 11 22 10 30 -3z"/>
<path d="M3494 2704 c15 -14 31 -23 34 -20 6 7 -39 45 -53 45 -5 0 3 -11 19
-25z"/>
<path d="M3293 2666 c-46 -12 -74 -32 -30 -21 38 10 34 -1 -10 -24 -21 -11
-31 -20 -22 -21 19 0 109 58 109 71 0 5 -1 8 -2 8 -2 -1 -22 -7 -45 -13z"/>
<path d="M1537 2653 c-4 -3 -7 -11 -7 -17 0 -6 5 -5 12 2 6 6 9 14 7 17 -3 3
-9 2 -12 -2z"/>
<path d="M1660 2402 c0 -4 33 -8 72 -10 40 -2 71 -1 68 1 -9 8 -140 16 -140 9z"/>
<path d="M1686 1762 c-9 -11 -31 -19 -53 -20 -29 -1 -46 -11 -89 -54 -30 -29
-54 -57 -54 -63 0 -5 26 16 58 48 48 48 63 57 93 57 25 0 43 7 59 25 13 14 19
25 13 25 -5 0 -17 -8 -27 -18z"/>
<path d="M1928 1421 c-58 -58 -67 -71 -47 -71 5 0 7 5 4 10 -3 6 -2 10 3 10
13 0 102 88 102 100 0 14 1 15 -62 -49z"/>
<path d="M978 943 c-62 -25 -81 -99 -36 -140 16 -14 37 -18 95 -18 62 0 78 -3
87 -18 9 -15 7 -22 -13 -38 -43 -35 -141 -19 -141 25 0 20 -24 21 -44 0 -53
-52 34 -126 139 -118 55 4 93 27 113 68 39 78 -41 125 -173 102 -56 -10 -76
46 -24 68 54 23 125 7 139 -30 12 -31 25 -30 46 1 21 32 5 77 -34 95 -40 18
-112 20 -154 3z"/>
<path d="M2157 952 c-23 -3 -27 -7 -21 -20 20 -45 19 -226 -1 -274 -6 -16 0
-18 61 -18 l68 0 -31 33 c-40 40 -54 76 -58 149 l-4 56 44 4 c50 4 102 -5 117
-20 6 -6 8 -22 4 -35 -8 -34 -52 -43 -101 -23 -21 9 -39 16 -41 16 -7 0 6 -40
24 -76 37 -72 114 -121 168 -108 20 5 23 12 22 51 0 37 -3 43 -17 37 -56 -24
-98 -16 -141 26 -16 16 -30 31 -30 33 0 3 17 -1 37 -8 39 -14 61 -12 104 6 55
22 69 104 25 148 -23 23 -33 25 -113 25 -48 1 -101 0 -116 -2z"/>
<path d="M3833 952 l-31 -3 14 -34 c18 -44 15 -235 -5 -259 -12 -15 -7 -16 56
-16 l70 0 -33 35 c-29 31 -63 110 -51 121 2 2 18 -3 35 -11 62 -32 169 -13
187 32 22 55 4 115 -40 130 -20 8 -144 11 -202 5z m165 -85 c14 -11 16 -53 3
-61 -23 -15 -82 -16 -115 -2 -30 12 -36 20 -36 45 0 28 3 30 43 33 51 4 88 -1
105 -15z"/>
<path d="M1562 923 c14 -36 14 -220 -1 -256 l-11 -28 117 3 117 3 -1 28 c-3
70 -1 67 -27 54 -13 -7 -54 -13 -92 -12 l-69 0 3 59 c4 65 20 106 60 149 l26
27 -67 0 -67 0 12 -27z"/>
<path d="M2665 893 c-8 -69 -37 -163 -65 -210 -11 -19 -20 -36 -20 -39 0 -2
30 -4 68 -4 37 0 62 4 56 8 -20 13 -36 54 -30 78 8 32 60 46 99 27 31 -15 34
-35 12 -77 -8 -15 -15 -30 -15 -32 0 -2 27 -4 60 -4 58 0 70 6 51 26 -16 17
-60 134 -67 182 -5 26 -9 50 -10 55 -1 4 -2 16 -3 27 -1 18 -8 20 -65 20 l-64
0 -7 -57z m111 -34 c8 -9 17 -29 20 -44 l5 -27 -26 20 c-29 23 -58 21 -87 -5
-19 -17 -19 -17 -13 12 13 57 68 81 101 44z"/>
<path d="M2493 440 c1 -21 10 -18 13 5 1 8 -2 15 -6 15 -5 0 -8 -9 -7 -20z"/>
</g>
</svg>
